<svg xmlns="http://www.w3.org/2000/svg"
  width="512"
  height="512"
  viewBox="0 0 1254 1254"
  preserveAspectRatio="xMidYMid meet">

  <style>
    .gear {
      fill: #050505;
      stroke: #ffffff;
      stroke-width: 75;
      stroke-linejoin: round;
      paint-order: stroke fill;
    }

    .whale {
      fill: #2496ED;
      stroke: none;
    }

    .container {
      fill: #ffffff;
      stroke: #2496ED;
      stroke-width: 55;
      stroke-linejoin: round;
      paint-order: stroke fill;
    }
  </style>

  <g transform="translate(0,1254) scale(0.1,-0.1)">
    <!-- Rust-like gear -->
    <path class="gear" d="M5635 12021 c-49 -30 -68 -58 -265 -401 -61 -107 -119 -203 -128
-214 -24 -26 -75 -46 -120 -46 -47 0 -65 12 -272 175 -338 266 -384 290 -442
228 -41 -44 -51 -71 -138 -383 -45 -162 -91 -307 -101 -321 -23 -33 -77 -59
-121 -59 -22 0 -102 30 -214 81 -397 180 -481 207 -542 175 -18 -9 -34 -26
-37 -39 -4 -20 -12 -165 -31 -567 -4 -87 -11 -146 -21 -167 -19 -42 -71 -74
-120 -75 -21 0 -177 23 -348 52 -329 55 -407 59 -446 24 -10 -9 -19 -29 -19
-43 0 -14 30 -177 67 -361 l67 -336 -24 -49 c-41 -80 -44 -81 -437 -104 -362
-21 -392 -26 -414 -74 -12 -26 7 -90 74 -247 134 -314 177 -424 177 -450 0
-44 -29 -108 -59 -129 -14 -10 -159 -53 -321 -95 -162 -42 -318 -88 -345 -101
-66 -32 -90 -70 -75 -122 6 -21 93 -157 195 -303 110 -157 187 -278 191 -297
9 -48 -3 -98 -32 -132 -17 -21 -113 -74 -297 -167 -344 -172 -382 -205 -339
-291 11 -21 121 -139 245 -262 186 -185 227 -230 235 -262 10 -40 4 -88 -16
-125 -10 -20 -126 -116 -347 -289 -208 -162 -236 -206 -177 -276 24 -29 208
-155 472 -322 78 -49 94 -64 112 -103 39 -88 32 -101 -188 -364 -108 -129
-207 -253 -220 -276 -32 -54 -30 -86 6 -127 31 -36 86 -60 433 -185 128 -46
198 -77 217 -96 33 -31 55 -95 45 -135 -3 -14 -60 -127 -125 -251 -205 -390
-208 -397 -165 -449 15 -17 43 -35 63 -41 20 -5 161 -26 312 -45 151 -19 290
-38 308 -41 47 -7 97 -56 112 -108 12 -43 9 -58 -74 -368 -47 -178 -86 -340
-86 -360 0 -43 32 -74 87 -84 20 -4 178 8 358 26 321 33 322 33 361 14 46 -23
78 -79 79 -139 0 -22 -6 -181 -14 -353 -14 -308 -14 -313 6 -339 26 -36 75
-48 139 -34 27 6 169 51 315 98 309 102 365 110 418 59 16 -15 34 -40 40 -55
5 -14 31 -150 56 -301 53 -318 67 -373 97 -395 30 -20 84 -19 136 5 24 11 161
86 305 167 244 138 266 148 313 148 80 -1 104 -25 159 -158 224 -533 215 -516
266 -543 25 -12 37 -13 67 -3 44 13 72 36 339 271 111 98 213 182 228 188 37
14 91 12 123 -4 41 -22 69 -55 210 -256 173 -247 216 -301 260 -327 65 -40 99
-16 234 165 288 387 298 400 332 416 38 18 92 21 129 7 14 -6 110 -88 214
-183 311 -285 325 -295 390 -283 57 10 65 26 250 455 87 200 99 221 149 245
61 29 96 16 357 -137 283 -165 336 -191 390 -191 33 0 46 6 67 30 29 32 28 28
111 466 21 114 46 221 54 238 21 40 71 69 119 69 23 0 160 -40 326 -95 157
-52 305 -97 327 -101 58 -9 106 10 127 49 17 30 17 52 3 367 l-15 335 23 51
c19 44 29 54 68 69 43 16 54 16 343 -15 333 -35 391 -35 429 0 44 41 40 67
-86 524 -57 207 -60 221 -49 263 14 46 64 100 103 107 12 2 150 21 307 41 296
37 360 52 385 88 37 53 16 110 -187 489 -53 97 -98 190 -101 206 -8 41 9 97
41 133 22 24 73 47 257 113 330 120 360 133 395 172 60 69 51 86 -222 412
-165 197 -188 228 -194 267 -5 36 -2 54 17 92 22 44 40 57 276 207 261 166
319 210 329 252 15 58 -19 97 -210 247 -330 260 -339 268 -354 319 -24 85 -12
105 160 273 284 277 315 311 328 349 14 44 3 80 -36 117 -13 12 -153 88 -311
168 -194 99 -293 155 -306 173 -27 36 -34 116 -14 155 9 17 68 102 130 190
238 332 259 372 243 437 -12 50 -67 72 -391 157 -171 45 -323 88 -338 96 -39
19 -71 93 -64 144 3 22 38 108 77 191 170 358 199 444 169 500 -24 45 -90 54
-554 78 -225 12 -248 18 -288 71 -36 49 -32 97 32 417 65 321 71 381 45 403
-35 29 -140 22 -452 -30 -166 -28 -316 -51 -333 -51 -49 0 -98 29 -118 69 -14
27 -20 69 -25 166 -4 72 -11 228 -17 349 -6 120 -14 229 -19 241 -12 32 -67
40 -138 20 -31 -9 -182 -70 -335 -136 -188 -80 -290 -119 -315 -119 -42 0 -94
28 -117 64 -9 13 -50 161 -91 328 -41 167 -83 318 -94 336 -64 105 -122 84
-446 -165 -248 -192 -267 -203 -324 -203 -86 0 -100 16 -245 297 -162 313
-184 348 -231 370 -35 17 -37 17 -83 -8 -33 -18 -98 -85 -233 -240 -103 -118
-202 -230 -220 -250 -63 -70 -166 -74 -227 -10 -14 15 -93 112 -176 216 -167
210 -231 280 -270 295 -36 14 -45 13 -80 -9z m1070 -1435 c536 -63 1073 -234
1537 -491 139 -77 451 -286 566 -378 376 -302 712 -673 994 -1097 212 -318
460 -927 539 -1323 l24 -118 50 -28 c96 -54 144 -138 131 -224 -4 -21 -27 -80
-53 -130 l-47 -92 -1 -390 c-1 -237 -6 -425 -13 -480 -73 -549 -210 -1011
-433 -1457 -44 -87 -79 -164 -79 -172 0 -7 -31 -65 -69 -127 -163 -271 -365
-530 -616 -788 -602 -619 -1413 -1048 -2253 -1191 -427 -72 -910 -79 -1327
-19 -686 99 -1347 379 -1907 806 -238 182 -515 449 -718 694 -351 422 -614
905 -775 1424 -181 582 -236 1119 -179 1725 94 991 544 1933 1268 2655 562
560 1208 921 1996 1115 192 47 404 79 690 104 97 8 552 -4 675 -18z"/>

    <!-- Docker whale -->
    <path class="whale" d="M8715 7918 c-203 -233 -338 -582 -322 -838 10 -151 56 -307 127 -422
17 -26 30 -52 30 -56 0 -24 -195 -143 -280 -171 -149 -48 13 -45 -2701 -51
l-2526 -5 -69 -35 c-81 -42 -126 -95 -150 -178 -43 -146 30 -624 141 -927 52
-143 192 -422 273 -545 342 -517 830 -874 1472 -1075 453 -142 1034 -188 1532
-119 521 72 1014 258 1438 544 291 196 589 484 823 796 266 354 513 818 649
1218 23 66 46 124 52 128 6 4 39 8 72 8 82 0 220 25 313 56 313 105 560 323
715 631 l36 73 -37 23 c-205 126 -531 161 -817 87 -63 -16 -109 -32 -243 -87
-10 -4 -13 12 -13 58 0 217 -80 466 -216 670 -45 69 -228 269 -245 269 -4 0
-28 -24 -54 -52z"/>

    <!-- Containers -->
    <path class="container" d="M6362 9242 c-19 -13 -20 -761 -1 -773 23 -14 803 -11 817 3 17 17 17
749 0 766 -14 14 -794 17 -816 4z"/>

    <path class="container" d="M4302 8318 c-9 -9 -12 -110 -12 -395 0 -368 1 -383 19 -393 13 -6
162 -10 415 -10 345 0 397 2 410 16 14 13 16 63 16 389 0 326 -2 376 -16 389
-13 14 -65 16 -418 16 -299 0 -405 -3 -414 -12z"/>

    <path class="container" d="M5332 8318 c-9 -9 -12 -110 -12 -393 0 -283 3 -384 12 -393 16 -16
799 -17 829 -2 18 10 19 25 19 390 0 331 -2 381 -16 394 -13 14 -65 16 -418
16 -299 0 -405 -3 -414 -12z"/>

    <path class="container" d="M6362 8288 c-9 -9 -12 -106 -12 -374 0 -316 2 -365 16 -378 13 -14
64 -16 400 -16 247 0 392 4 405 10 18 10 19 25 19 378 0 273 -3 371 -12 380
-9 9 -113 12 -408 12 -295 0 -399 -3 -408 -12z"/>

    <path class="container" d="M3273 7348 c-4 -7 -7 -184 -6 -392 1 -303 4 -380 15 -387 19 -13 805
-11 829 1 18 10 19 25 19 388 0 281 -3 381 -12 390 -18 18 -834 17 -845 0z"/>

    <path class="container" d="M7367 7343 c-4 -3 -7 -176 -7 -383 0 -322 2 -379 15 -390 11 -9 93
-11 342 -8 181 2 334 7 341 11 17 11 18 747 0 765 -9 9 -100 12 -348 12 -185
0 -340 -3 -343 -7z"/>

    <path class="container" d="M4317 7333 c-4 -3 -7 -174 -7 -378 0 -311 2 -375 14 -384 11 -9 115
-11 406 -9 334 3 392 5 400 18 15 23 13 733 -2 748 -9 9 -113 12 -408 12 -218
0 -400 -3 -403 -7z"/>

    <path class="container" d="M5337 7333 c-4 -3 -7 -174 -7 -378 0 -287 3 -375 13 -382 15 -11 786
-11 805 0 17 11 18 737 0 755 -9 9 -113 12 -408 12 -218 0 -400 -3 -403 -7z"/>

    <path class="container" d="M6362 7328 c-16 -20 -14 -734 2 -750 19 -19 789 -19 808 0 17 17 25
711 8 742 -10 19 -21 20 -409 20 -307 0 -401 -3 -409 -12z"/>
  </g>
</svg>
