<svg xmlns="http://www.w3.org/2000/svg" viewBox="0 0 24 24">
  <rect width="24" height="24" rx="5" fill="#09090b"/>
  <path d="M4 9h16l-1.8 8.2A1.8 1.8 0 0 1 16.4 18.6H7.6A1.8 1.8 0 0 1 5.8 17.2z" fill="#22d3ee" opacity="0.18"/>
  <path d="M4 9h16l-1.8 8.2A1.8 1.8 0 0 1 16.4 18.6H7.6A1.8 1.8 0 0 1 5.8 17.2z" fill="none" stroke="#22d3ee" stroke-width="1.5" stroke-linejoin="round"/>
  <path d="M8.5 9V6.8A1.3 1.3 0 0 1 9.8 5.5h4.4A1.3 1.3 0 0 1 15.5 6.8V9" fill="none" stroke="#22d3ee" stroke-width="1.5"/>
  <path d="M12 11.5v4" stroke="#22d3ee" stroke-width="1.5" stroke-linecap="round"/>
</svg>
